<?xml version="1.0" encoding="UTF-8"?>
<svg width="20px" height="20px" viewBox="0 0 20 20" version="1.1" xmlns="http://www.w3.org/2000/svg" xmlns:xlink="http://www.w3.org/1999/xlink">
    <title>通信备份 2</title>
    <defs>
        <linearGradient x1="92.4350788%" y1="8.11528864%" x2="16.5542381%" y2="90.7696047%" id="linearGradient-1">
            <stop stop-color="#FFFFFF" offset="0%"></stop>
            <stop stop-color="#FFFFFF" offset="49.766017%"></stop>
            <stop stop-color="#4A4A4A" offset="100%"></stop>
        </linearGradient>
    </defs>
    <g id="UI界面" stroke="none" stroke-width="1" fill="none" fill-rule="evenodd">
        <g id="VG一级图标库icon" transform="translate(-112, -728)">
            <g id="通信备份-2" transform="translate(112, 728)">
                <rect id="矩形备份-3084" x="0" y="0" width="20" height="20"></rect>
                <path d="M17.3641795,6.07792595 C17.3641795,3.96092464 15.7133185,2.15187827 13.5532402,2.00923378 C11.1787818,1.85258677 9.18311995,3.70978573 9.18311995,6.00005576 L9.18311995,13.9386847 C9.18311995,15.3540484 7.99789958,16.4958088 6.55389837,16.3963807 C5.2810098,16.308739 4.27359824,15.2688244 4.27359824,14.001948 L4.27359824,5.90501355 C4.27359824,5.90189069 4.27627671,5.89937224 4.27947026,5.89937224 L2.62994843,5.89937224 C2.63324501,5.89937224 2.62994843,5.89050733 2.62994843,5.8936302 C2.62994843,5.89571211 2.63190577,8.57185639 2.63582045,13.922063 C2.63582045,16.0391651 4.28668151,17.8482114 6.44665678,17.9907552 C8.82121824,18.1475029 10.81688,16.2902032 10.81688,14.000034 L10.81688,6.06331899 C10.81688,4.64795528 12.0021004,3.50619498 13.4459986,3.60562302 C14.7189902,3.69326476 15.7262987,4.73317932 15.7262987,6.00005576 L15.7262987,14.1392463 C15.7262987,14.1423692 15.7237233,14.1449884 15.7205297,14.1449884 L17.3699485,14.1449884 C17.366755,14.1449884 17.3641795,14.1423692 17.3641795,14.1392463 L17.3641795,6.07792595 Z" id="路径" fill="url(#linearGradient-1)"></path>
                <rect id="矩形" fill="#10E5FF" x="14.5" y="14" width="4" height="4" rx="1"></rect>
                <rect id="矩形备份-3076" fill="#10E5FF" x="1.5" y="2" width="4" height="4" rx="1"></rect>
            </g>
        </g>
    </g>
</svg>