<?xml version="1.0" encoding="UTF-8"?>
<svg width="20px" height="20px" viewBox="0 0 20 20" version="1.1" xmlns="http://www.w3.org/2000/svg" xmlns:xlink="http://www.w3.org/1999/xlink">
    <title>图像处理备份 2</title>
    <defs>
        <linearGradient x1="93.0982458%" y1="6.93221478%" x2="1.56326565e-14%" y2="94.5502758%" id="linearGradient-1">
            <stop stop-color="#FFFFFF" offset="0%"></stop>
            <stop stop-color="#FFFFFF" offset="41.6796015%"></stop>
            <stop stop-color="#4F4E4E" offset="100%"></stop>
        </linearGradient>
        <linearGradient x1="93.0982458%" y1="7.66571922%" x2="1.84504618e-14%" y2="94.9167414%" id="linearGradient-2">
            <stop stop-color="#FFFFFF" offset="0%"></stop>
            <stop stop-color="#FFFFFF" offset="47.4110435%"></stop>
            <stop stop-color="#3F3F3F" offset="100%"></stop>
        </linearGradient>
    </defs>
    <g id="UI界面" stroke="none" stroke-width="1" fill="none" fill-rule="evenodd">
        <g id="VG一级图标库icon" transform="translate(-106, -1155)">
            <g id="图像处理备份-2" transform="translate(106, 1155)">
                <rect id="矩形备份-3078" x="0" y="0" width="20" height="20"></rect>
                <path d="M8.96356082,13.7 C7.48652414,13.7 6.3,12.4563088 6.3,10.942065 L6.3,4.057935 C6.3,2.54369123 7.48652414,1.3 8.96356082,1.3 L16.0364392,1.3 C17.5134759,1.3 18.7,2.54369123 18.7,4.057935 L18.7,10.942065 C18.7,12.4563088 17.5134759,13.7 16.0364392,13.7 L8.96356082,13.7 Z M8.96356082,12.3 L16.0364392,12.3 C16.725158,12.3 17.3,11.697462 17.3,10.942065 L17.3,4.057935 C17.3,3.30253802 16.725158,2.7 16.0364392,2.7 L8.96356082,2.7 C8.27484196,2.7 7.7,3.30253802 7.7,4.057935 L7.7,10.942065 C7.7,11.697462 8.27484196,12.3 8.96356082,12.3 Z" id="Fill-1" fill="url(#linearGradient-1)"></path>
                <circle id="椭圆形备份-84" fill="#10E5FF" cx="10.78125" cy="5.78125" r="1.03125"></circle>
                <path d="M15.6544047,5.67063507 C15.8363079,5.47976804 16.1384979,5.47250146 16.3293649,5.65440469 C16.520232,5.83630792 16.5274985,6.13849791 16.3455953,6.32936493 L12.799292,10.0504222 L12.7705767,10.0791375 C12.4328889,10.4009663 11.8982451,10.3881101 11.5764163,10.0504222 L10.481,8.901 L9.34559531,10.0942326 C9.18642999,10.2612412 8.93517011,10.2876808 8.7469761,10.1698202 L8.67063507,10.110463 C8.47976804,9.92855973 8.47250146,9.62636973 8.65440469,9.43550271 L9.87044437,8.15953926 C10.1922732,7.82185146 10.726917,7.80899518 11.0646048,8.13082398 L11.0933201,8.15953926 L12.188,9.308 L15.6544047,5.67063507 Z" id="路径-16备份-2" fill="#10E5FF"></path>
                <path d="M4.29239752,6.8 C4.67899685,6.8 4.99239752,7.11340068 4.99239752,7.5 C4.99239752,7.88659932 4.67899685,8.2 4.29239752,8.2 L2.86177583,8.2 C2.6960904,8.2 2.56177583,8.33431458 2.56177583,8.5 L2.56177583,17.1809492 C2.56177583,17.3466346 2.6960904,17.4809492 2.86177583,17.4809492 L11.6469358,17.4809492 C11.8126212,17.4809492 11.9469358,17.3466346 11.9469358,17.1809492 L11.9469358,15.4328376 C11.9469358,15.0462382 12.2603365,14.7328376 12.6469358,14.7328376 C13.0335351,14.7328376 13.3469358,15.0462382 13.3469358,15.4328376 L13.3469358,17.1809492 C13.3469358,18.1198333 12.5858199,18.8809492 11.6469358,18.8809492 L2.86177583,18.8809492 C1.92289175,18.8809492 1.16177583,18.1198333 1.16177583,17.1809492 L1.16177583,8.5 C1.16177583,7.56111593 1.92289175,6.8 2.86177583,6.8 L4.29239752,6.8 Z" id="路径-3" fill="url(#linearGradient-2)"></path>
                <path d="M5.82250519,13.333575 C6.37478994,13.333575 6.82250519,13.7812903 6.82250519,14.333575 L6.82250519,15.8913701 C6.82250519,16.1675125 6.59864756,16.3913701 6.32250519,16.3913701 C6.04636281,16.3913701 5.82250519,16.1675125 5.82250519,15.8913701 L5.82228075,15.092575 L4.55824358,16.4659875 C4.37112013,16.6690624 4.05480185,16.6819936 3.85172692,16.4948702 C3.64865199,16.3077467 3.63572075,15.9914285 3.82284419,15.7883535 L5.16228075,14.333575 L3.97228075,14.333575 C3.69613838,14.333575 3.47228075,14.1097174 3.47228075,13.833575 C3.47228075,13.5574326 3.69613838,13.333575 3.97228075,13.333575 L5.82250519,13.333575 Z" id="形状结合" fill="#10E5FF"></path>
            </g>
        </g>
    </g>
</svg>