<?xml version="1.0" encoding="UTF-8"?>
<svg width="20px" height="20px" viewBox="0 0 20 20" version="1.1" xmlns="http://www.w3.org/2000/svg" xmlns:xlink="http://www.w3.org/1999/xlink">
    <title>其他备份 2</title>
    <defs>
        <linearGradient x1="97.1603947%" y1="2.88040507%" x2="8.15608886%" y2="94.0247815%" id="linearGradient-1">
            <stop stop-color="#FFFFFF" offset="0%"></stop>
            <stop stop-color="#FFFFFF" offset="43.5821554%"></stop>
            <stop stop-color="#4A4A4A" offset="100%"></stop>
        </linearGradient>
    </defs>
    <g id="UI界面" stroke="none" stroke-width="1" fill="none" fill-rule="evenodd">
        <g id="VG一级图标库icon" transform="translate(-108, -2591)">
            <g id="其他备份-2" transform="translate(108, 2591)">
                <rect id="矩形备份-3092" x="0" y="0" width="20" height="20"></rect>
                <path d="M7.52173913,11 C8.33816006,11 9,11.6618399 9,12.4782609 L9,17.5217391 C9,18.3381601 8.33816006,19 7.52173913,19 L2.47826087,19 C1.66183994,19 1,18.3381601 1,17.5217391 L1,12.4782609 C1,11.6618399 1.66183994,11 2.47826087,11 L7.52173913,11 Z M7.5,12.5 L2.5,12.5 L2.5,17.5 L7.5,17.5 L7.5,12.5 Z M17.5217391,11 C18.3381601,11 19,11.6618399 19,12.4782609 L19,17.5217391 C19,18.3381601 18.3381601,19 17.5217391,19 L12.4782609,19 C11.6618399,19 11,18.3381601 11,17.5217391 L11,12.4782609 C11,11.6618399 11.6618399,11 12.4782609,11 L17.5217391,11 Z M17.5,12.5 L12.5,12.5 L12.5,17.5 L17.5,17.5 L17.5,12.5 Z M7.52173913,1 C8.33816006,1 9,1.66183994 9,2.47826087 L9,7.52173913 C9,8.33816006 8.33816006,9 7.52173913,9 L2.47826087,9 C1.66183994,9 1,8.33816006 1,7.52173913 L1,2.47826087 C1,1.66183994 1.66183994,1 2.47826087,1 L7.52173913,1 Z M7.5,2.5 L2.5,2.5 L2.5,7.5 L7.5,7.5 L7.5,2.5 Z" id="形状结合" fill="url(#linearGradient-1)"></path>
                <circle id="椭圆形备份-91" fill="#10E5FF" cx="15" cy="5" r="4"></circle>
            </g>
        </g>
    </g>
</svg>