<?xml version="1.0" encoding="UTF-8"?>
<svg width="20px" height="20px" viewBox="0 0 20 20" version="1.1" xmlns="http://www.w3.org/2000/svg" xmlns:xlink="http://www.w3.org/1999/xlink">
    <title>数据处理备份 2</title>
    <defs>
        <linearGradient x1="97.1603947%" y1="46.3642288%" x2="8.15608886%" y2="53.3969739%" id="linearGradient-1">
            <stop stop-color="#FFFFFF" offset="0%"></stop>
            <stop stop-color="#FFFFFF" offset="43.5821554%"></stop>
            <stop stop-color="#4A4A4A" offset="100%"></stop>
        </linearGradient>
    </defs>
    <g id="UI界面" stroke="none" stroke-width="1" fill="none" fill-rule="evenodd">
        <g id="VG一级图标库icon" transform="translate(-108, -2098)">
            <g id="数据处理备份-2" transform="translate(108, 2098)">
                <rect id="矩形备份-3081" x="0" y="0" width="20" height="20"></rect>
                <path d="M18,7.54001658 C18.5522847,7.54001658 19,7.98773183 19,8.54001658 L19,11.5400166 C19,12.0923013 18.5522847,12.5400166 18,12.5400166 L2,12.5400166 C1.44771525,12.5400166 1,12.0923013 1,11.5400166 L1,8.54001658 C1,7.98773183 1.44771525,7.54001658 2,7.54001658 L18,7.54001658 Z M17.6,8.94001658 L2.4,8.94001658 L2.4,11.1400166 L17.6,11.1400166 L17.6,8.94001658 Z" id="矩形备份-3082" fill="url(#linearGradient-1)"></path>
                <path d="M4.2379934,9.54001658 L7.2379934,9.54001658 C7.51413578,9.54001658 7.7379934,9.76387421 7.7379934,10.0400166 C7.7379934,10.316159 7.51413578,10.5400166 7.2379934,10.5400166 L4.2379934,10.5400166 C3.96185103,10.5400166 3.7379934,10.316159 3.7379934,10.0400166 C3.7379934,9.76387421 3.96185103,9.54001658 4.2379934,9.54001658 Z" id="矩形备份-3083" fill="#D8D8D8"></path>
                <path d="M7.2379934,9.54001658 C7.51413578,9.54001658 7.7379934,9.76387421 7.7379934,10.0400166 C7.7379934,10.316159 7.51413578,10.5400166 7.2379934,10.5400166 L4.2379934,10.5400166 C3.96185103,10.5400166 3.7379934,10.316159 3.7379934,10.0400166 C3.7379934,9.76387421 3.96185103,9.54001658 4.2379934,9.54001658 L7.2379934,9.54001658 Z" id="矩形备份-3083" fill="#10E5FF"></path>
                <path d="M18,14 C18.5522847,14 19,14.4477153 19,15 L19,18 C19,18.5522847 18.5522847,19 18,19 L2,19 C1.44771525,19 1,18.5522847 1,18 L1,15 C1,14.4477153 1.44771525,14 2,14 L18,14 Z M17.6,15.4 L2.4,15.4 L2.4,17.6 L17.6,17.6 L17.6,15.4 Z" id="矩形备份-3082" fill="url(#linearGradient-1)"></path>
                <path d="M4.2379934,16 L7.2379934,16 C7.51413578,16 7.7379934,16.2238576 7.7379934,16.5 C7.7379934,16.7761424 7.51413578,17 7.2379934,17 L4.2379934,17 C3.96185103,17 3.7379934,16.7761424 3.7379934,16.5 C3.7379934,16.2238576 3.96185103,16 4.2379934,16 Z" id="矩形备份-3083" fill="#D8D8D8"></path>
                <path d="M7.2379934,16 C7.51413578,16 7.7379934,16.2238576 7.7379934,16.5 C7.7379934,16.7761424 7.51413578,17 7.2379934,17 L4.2379934,17 C3.96185103,17 3.7379934,16.7761424 3.7379934,16.5 C3.7379934,16.2238576 3.96185103,16 4.2379934,16 L7.2379934,16 Z" id="矩形备份-3083" fill="#10E5FF"></path>
                <path d="M18,1 C18.5522847,1 19,1.44771525 19,2 L19,5 C19,5.55228475 18.5522847,6 18,6 L2,6 C1.44771525,6 1,5.55228475 1,5 L1,2 C1,1.44771525 1.44771525,1 2,1 L18,1 Z M17.6,2.4 L2.4,2.4 L2.4,4.6 L17.6,4.6 L17.6,2.4 Z" id="矩形备份-3082" fill="url(#linearGradient-1)"></path>
                <path d="M4.2379934,3 L7.2379934,3 C7.51413578,3 7.7379934,3.22385763 7.7379934,3.5 C7.7379934,3.77614237 7.51413578,4 7.2379934,4 L4.2379934,4 C3.96185103,4 3.7379934,3.77614237 3.7379934,3.5 C3.7379934,3.22385763 3.96185103,3 4.2379934,3 Z" id="矩形备份-3083" fill="#00A0E9"></path>
                <path d="M7.2379934,3 C7.51413578,3 7.7379934,3.22385763 7.7379934,3.5 C7.7379934,3.77614237 7.51413578,4 7.2379934,4 L4.2379934,4 C3.96185103,4 3.7379934,3.77614237 3.7379934,3.5 C3.7379934,3.22385763 3.96185103,3 4.2379934,3 L7.2379934,3 Z" id="矩形备份-3083" fill="#10E5FF"></path>
            </g>
        </g>
    </g>
</svg>