<?xml version="1.0" encoding="UTF-8"?>
<svg width="20px" height="20px" viewBox="0 0 20 20" version="1.1" xmlns="http://www.w3.org/2000/svg" xmlns:xlink="http://www.w3.org/1999/xlink">
    <title>临时通用图标</title>
    <defs>
        <linearGradient x1="80.2462826%" y1="6.20557684%" x2="19.7537174%" y2="100%" id="linearGradient-1">
            <stop stop-color="#FFFFFF" offset="0%"></stop>
            <stop stop-color="#FFFFFF" offset="40.8052885%"></stop>
            <stop stop-color="#4A4A4A" offset="100%"></stop>
        </linearGradient>
    </defs>
    <g id="UI界面" stroke="none" stroke-width="1" fill="none" fill-rule="evenodd">
        <g id="阈值分割-ROI设置-ROI参数列表" transform="translate(-572, -354)">
            <g id="临时通用图标" transform="translate(572, 354)">
                <rect id="矩形" fill="#000000" opacity="0" x="0" y="0" width="20" height="20"></rect>
                <g id="技术服务" transform="translate(3, 1)">
                    <path d="M5.59994159,5.52 C5.47617518,5.42452206 5.32060342,5.38352594 5.16745031,5.4060303 C5.01429719,5.42853467 4.87610824,5.51269608 4.78328344,5.64 L3.03330169,8.04 C2.87755304,8.25326653 2.87755304,8.54673347 3.03330169,8.76 L4.78328344,11.16 C4.97658109,11.4250967 5.34221139,11.4788225 5.59994158,11.28 C5.85767177,11.0811775 5.90990467,10.7050967 5.71660703,10.44 L4.22912255,8.39999755 L5.71660703,6.36 C5.80943184,6.23269608 5.84928877,6.07267774 5.82740975,5.91514719 C5.80553073,5.75761663 5.72370799,5.61547794 5.59994159,5.52 L5.59994159,5.52 Z M11.3165486,11.28 C11.5742788,11.4788225 11.9399091,11.4250967 12.1332068,11.16 L13.8831885,8.76 C14.0389372,8.54673347 14.0389372,8.25326653 13.8831885,8.04 L12.1332068,5.64 C11.9399091,5.37490334 11.5742788,5.32117752 11.3165486,5.52000002 C11.0588185,5.71882253 11.0065855,6.09490332 11.1998832,6.36 L12.6873677,8.4 L11.1998832,10.44 C11.1070584,10.5673039 11.0672014,10.7273223 11.0890805,10.8848528 C11.1109595,11.0423834 11.1927822,11.1845221 11.3165486,11.28 Z M8.47224496,5.2698 L7.30559046,10.6698 C7.25604581,10.8807079 7.32106546,11.1026973 7.47563244,11.2503555 C7.63019941,11.3980137 7.85022883,11.4483325 8.05106215,11.381951 C8.25189547,11.3155696 8.4022385,11.1428317 8.44424525,10.9302 L9.61089975,5.5302 C9.66044439,5.31929212 9.59542474,5.09730273 9.44085777,4.94964449 C9.28629079,4.80198626 9.06626138,4.75166753 8.86542806,4.81804895 C8.66459474,4.88443037 8.51425171,5.05716827 8.47224496,5.2698 L8.47224496,5.2698 Z" id="形状" fill="#10E5FF"></path>
                    <path d="M12.6569672,11.9322 L12.6569672,13.1117002 L11.0832177,13.1117002 C10.1167295,13.1117002 9.33323598,14.0058875 9.33323598,15 L9.33323598,16.54565 L1.98863782,16.54565 C1.63630816,16.54565 1.34989448,16.23485 1.34989448,15.85325 L1.34989448,2.03805064 C1.34989448,1.65645064 1.63630816,1.34565064 1.98863782,1.34565064 L12.0176406,1.34565064 C12.3705535,1.34565064 12.6569672,1.65645064 12.6569672,2.03805064 L12.6569672,4.2258 C12.6569672,4.55717085 12.9593691,4.8258 13.3034901,4.8258 C13.647611,4.8258 13.999854,4.55717085 13.999854,4.2258 L13.999854,1.8924 C13.999854,0.849 13.1896124,0 12.1938728,0 L1.80539783,0 C0.810241548,0 0,0.849 0,1.8924 L0,16.1076 C0,17.151 0.810241548,18 1.80539783,18 L9.73514845,18 C9.76373148,18 9.78823123,17.9874 9.81564761,17.9832 C9.97897924,18.0132 10.1522274,17.9784 10.2893093,17.8608 L13.7892728,15 C13.9694647,14.8456767 14.0423072,14.5953771 13.9741876,14.3646 C13.9841041,14.322 13.999854,14.2818 13.999854,14.2362 L13.999854,11.9322 C13.999854,11.6008292 13.6256528,11.2759268 13.3034901,11.2759268 C12.9813273,11.2759268 12.6569672,11.6008292 12.6569672,11.9322 Z M11.0832177,14.4 L12.5053696,14.4 L10.4998905,16.119 L10.4998905,15 C10.4998905,14.6686292 10.761055,14.4 11.0832177,14.4 Z" id="形状" fill="url(#linearGradient-1)"></path>
                </g>
            </g>
        </g>
    </g>
</svg>