<?xml version="1.0" encoding="UTF-8"?>
<svg width="20px" height="20px" viewBox="0 0 20 20" version="1.1" xmlns="http://www.w3.org/2000/svg" xmlns:xlink="http://www.w3.org/1999/xlink">
    <title>元素定位备份 2</title>
    <defs>
        <linearGradient x1="77.8715498%" y1="13.8129148%" x2="16.4674123%" y2="87.8656492%" id="linearGradient-1">
            <stop stop-color="#FFFFFF" offset="0%"></stop>
            <stop stop-color="#FFFFFF" offset="65.223151%"></stop>
            <stop stop-color="#4A4A4A" offset="100%"></stop>
        </linearGradient>
        <linearGradient x1="97.1603947%" y1="2.89906404%" x2="-7.00634576e-13%" y2="99.9802004%" id="linearGradient-2">
            <stop stop-color="#FFFFFF" offset="0%"></stop>
            <stop stop-color="#FFFFFF" offset="76.0502052%"></stop>
            <stop stop-color="#424242" offset="100%"></stop>
        </linearGradient>
    </defs>
    <g id="UI界面" stroke="none" stroke-width="1" fill="none" fill-rule="evenodd">
        <g id="VG一级图标库icon" transform="translate(-108, -1624)">
            <g id="元素定位备份-2" transform="translate(108, 1624)">
                <rect id="矩形备份-3079" x="0" y="0" width="20" height="20"></rect>
                <path d="M8.02643499,10.0275825 C8.02643499,11.1318284 8.92206129,12.0272389 10.026435,12.0272389 C11.1308087,12.0272389 12.026435,11.1318284 12.026435,10.0274702 C12.026435,8.92322423 11.1308087,8.0278138 10.026435,8.0278138 C8.92206129,8.0278138 8.02643499,8.92322423 8.02643499,10.0275825 Z" id="路径" fill="#10E5FF"></path>
                <path d="M5.59521954,10.5973483 C5.93132504,10.5973483 6.20244502,10.3263692 6.20244502,9.99019303 C6.20244502,9.65412641 5.93132504,9.38303779 5.59521954,9.38303779 L2.645776,9.38303779 C2.30967051,9.38303779 2.03855052,9.65412641 2.03855052,9.99019303 C2.03855052,10.3263692 2.31186226,10.5973483 2.645776,10.5973483 L5.59521954,10.5973483 Z M17.3129094,10.5908834 C17.6491245,10.5908834 17.9202445,10.3197947 17.9202445,9.98372811 C17.9202445,9.64766149 17.6491245,9.37657286 17.3129094,9.37657286 L14.3635755,9.37657286 C14.02747,9.37657286 13.75635,9.64766149 13.75635,9.98372811 C13.75635,10.3197947 14.02747,10.5908834 14.3635755,10.5908834 L17.3129094,10.5908834 Z M10.5702944,14.355571 C10.5702944,14.0195044 10.299284,13.7484157 9.96306894,13.7484157 C9.62696345,13.7484157 9.35584346,14.0195044 9.35584346,14.355571 L9.35584346,17.3002904 C9.35584346,17.636357 9.62696345,17.9074456 9.96306894,17.9074456 C10.299284,17.9052541 10.5702944,17.6342751 10.5702944,17.2980989 L10.5702944,14.355571 Z M10.5855271,5.58580638 L10.5855271,2.63681356 C10.5855271,2.30063736 10.3144071,2.02965831 9.97830163,2.02965831 C9.64219614,2.02965831 9.37107615,2.30063736 9.37107615,2.63681356 L9.37107615,5.58580638 C9.37107615,5.92198258 9.64219614,6.19296163 9.97830163,6.19296163 C10.312325,6.19296163 10.5855271,5.92198258 10.5855271,5.58580638 L10.5855271,5.58580638 Z" id="形状结合" fill="url(#linearGradient-1)"></path>
                <path d="M15.2038565,1.00565819 L17.2616823,1.00565819 C18.2281806,1.00565819 19.0116823,1.78915988 19.0116823,2.75565819 L19.0116823,4.76547148 C19.0116823,5.17968504 18.6758959,5.51547148 18.2616823,5.51547148 C17.8474687,5.51547148 17.5116823,5.17968504 17.5116823,4.76547148 L17.5116823,2.75565819 C17.5116823,2.617587 17.3997535,2.50565819 17.2616823,2.50565819 L15.2038565,2.50565819 C14.789643,2.50565819 14.4538565,2.16987175 14.4538565,1.75565819 C14.4538565,1.34144463 14.789643,1.00565819 15.2038565,1.00565819 Z M15.2038565,19.0034401 L17.2616823,19.0034401 C18.2281806,19.0034401 19.0116823,18.2199384 19.0116823,17.2534401 L19.0116823,15.2436268 C19.0116823,14.8294132 18.6758959,14.4936268 18.2616823,14.4936268 C17.8474687,14.4936268 17.5116823,14.8294132 17.5116823,15.2436268 L17.5116823,17.2534401 C17.5116823,17.3915113 17.3997535,17.5034401 17.2616823,17.5034401 L15.2038565,17.5034401 C14.789643,17.5034401 14.4538565,17.8392265 14.4538565,18.2534401 C14.4538565,18.6676536 14.789643,19.0034401 15.2038565,19.0034401 Z M4.81000223,19.0005545 L2.75217645,19.0005545 C1.78567814,19.0005545 1.00217645,18.2170528 1.00217645,17.2505545 L1.00217645,15.2407412 C1.00217645,14.8265276 1.33796289,14.4907412 1.75217645,14.4907412 C2.16639001,14.4907412 2.50217645,14.8265276 2.50217645,15.2407412 L2.50217645,17.2505545 C2.50217645,17.3886257 2.61410526,17.5005545 2.75217645,17.5005545 L4.81000223,17.5005545 C5.22421579,17.5005545 5.56000223,17.8363409 5.56000223,18.2505545 C5.56000223,18.664768 5.22421579,19.0005545 4.81000223,19.0005545 Z M4.81000223,0.99750037 L2.75217645,0.99750037 C1.78567814,0.99750037 1.00217645,1.78100206 1.00217645,2.74750037 L1.00217645,4.75731365 C1.00217645,5.17152722 1.33796289,5.50731365 1.75217645,5.50731365 C2.16639001,5.50731365 2.50217645,5.17152722 2.50217645,4.75731365 L2.50217645,2.74750037 C2.50217645,2.60942918 2.61410526,2.49750037 2.75217645,2.49750037 L4.81000223,2.49750037 C5.22421579,2.49750037 5.56000223,2.16171393 5.56000223,1.74750037 C5.56000223,1.33328681 5.22421579,0.99750037 4.81000223,0.99750037 Z" id="形状结合" fill="url(#linearGradient-2)"></path>
            </g>
        </g>
    </g>
</svg>