<?xml version="1.0" encoding="UTF-8"?>
<svg width="20px" height="20px" viewBox="0 0 20 20" version="1.1" xmlns="http://www.w3.org/2000/svg" xmlns:xlink="http://www.w3.org/1999/xlink">
    <title>流程控制备份 2</title>
    <defs>
        <linearGradient x1="62.4299199%" y1="5.62682556%" x2="40.9378449%" y2="93.7320605%" id="linearGradient-1">
            <stop stop-color="#FFFFFF" offset="0%"></stop>
            <stop stop-color="#FFFFFF" offset="63.7913548%"></stop>
            <stop stop-color="#4A4A4A" offset="100%"></stop>
        </linearGradient>
        <linearGradient x1="94.2371055%" y1="49.9997918%" x2="-3.46696578%" y2="50%" id="linearGradient-2">
            <stop stop-color="#FFFFFF" offset="0%"></stop>
            <stop stop-color="#FFFFFF" offset="56.5342792%"></stop>
            <stop stop-color="#4A4A4A" offset="100%"></stop>
        </linearGradient>
        <linearGradient x1="97.1603947%" y1="2.88040507%" x2="-28.0261965%" y2="100%" id="linearGradient-3">
            <stop stop-color="#FFFFFF" offset="0%"></stop>
            <stop stop-color="#FFFFFF" offset="43.5821554%"></stop>
            <stop stop-color="#4A4A4A" offset="100%"></stop>
        </linearGradient>
        <linearGradient x1="97.1603947%" y1="2.88040507%" x2="-32.0724137%" y2="124.796639%" id="linearGradient-4">
            <stop stop-color="#FFFFFF" offset="0%"></stop>
            <stop stop-color="#FFFFFF" offset="43.5821554%"></stop>
            <stop stop-color="#4A4A4A" offset="100%"></stop>
        </linearGradient>
    </defs>
    <g id="UI界面" stroke="none" stroke-width="1" fill="none" fill-rule="evenodd">
        <g id="VG一级图标库icon" transform="translate(-108, -3081)">
            <g id="流程控制备份-2" transform="translate(108, 3081)">
                <rect id="矩形备份-3086" x="0" y="0" width="20" height="20"></rect>
                <path d="M14.5094007,3 L14.5094007,4 L11.5965452,4 C10.7681181,4 10.0965452,4.67157288 10.0965452,5.5 L10.0965452,14.5356068 C10.0965452,15.3640339 10.7681181,16.0356068 11.5965452,16.0356068 L14.5094007,16.0356068 L14.5094007,17.0356068 L11.5965452,17.0356068 C10.2158333,17.0356068 9.09654521,15.9163187 9.09654521,14.5356068 L9.09654521,5.5 C9.09654521,4.11928813 10.2158333,3 11.5965452,3 L14.5094007,3 Z" id="路径-11" fill="url(#linearGradient-1)"></path>
                <polygon id="路径-13" fill="url(#linearGradient-2)" points="5.59308275 10.5178034 14.5094007 10.5178034 14.5094007 9.51780341 5.59308275 9.51780341"></polygon>
                <rect id="矩形" fill="#10E5FF" x="1" y="7.5" width="5" height="5" rx="2.5"></rect>
                <path d="M18,7.5 C18.5522847,7.5 19,7.94771525 19,8.5 L19,11.5 C19,12.0522847 18.5522847,12.5 18,12.5 L15,12.5 C14.4477153,12.5 14,12.0522847 14,11.5 L14,8.5 C14,7.94771525 14.4477153,7.5 15,7.5 L18,7.5 Z M17.6,8.9 L15.4,8.9 L15.4,11.1 L17.6,11.1 L17.6,8.9 Z" id="矩形备份-3087" fill="#10E5FF"></path>
                <path d="M18,14 C18.5522847,14 19,14.4477153 19,15 L19,18 C19,18.5522847 18.5522847,19 18,19 L15,19 C14.4477153,19 14,18.5522847 14,18 L14,15 C14,14.4477153 14.4477153,14 15,14 L18,14 Z M17.6,15.4 L15.4,15.4 L15.4,17.6 L17.6,17.6 L17.6,15.4 Z" id="矩形备份-3088" fill="url(#linearGradient-3)"></path>
                <path d="M18,1 C18.5522847,1 19,1.44771525 19,2 L19,5 C19,5.55228475 18.5522847,6 18,6 L15,6 C14.4477153,6 14,5.55228475 14,5 L14,2 C14,1.44771525 14.4477153,1 15,1 L18,1 Z M17.6,2.4 L15.4,2.4 L15.4,4.6 L17.6,4.6 L17.6,2.4 Z" id="矩形备份-3089" fill="url(#linearGradient-4)"></path>
            </g>
        </g>
    </g>
</svg>