<?xml version="1.0" encoding="UTF-8"?>
<svg width="20px" height="20px" viewBox="0 0 20 20" version="1.1" xmlns="http://www.w3.org/2000/svg" xmlns:xlink="http://www.w3.org/1999/xlink">
    <title>全局变量备份 2</title>
    <defs>
        <rect id="path-1" x="0" y="0" width="20" height="20"></rect>
        <linearGradient x1="100%" y1="46.1581471%" x2="-1.66949575e-12%" y2="50%" id="linearGradient-3">
            <stop stop-color="#4A4A4A" offset="0%"></stop>
            <stop stop-color="#FFFFFF" offset="50.233983%"></stop>
            <stop stop-color="#FFFFFF" offset="100%"></stop>
        </linearGradient>
        <linearGradient x1="53.2964239%" y1="40.5482042%" x2="50%" y2="57.4218936%" id="linearGradient-4">
            <stop stop-color="#4A4A4A" offset="0%"></stop>
            <stop stop-color="#FFFFFF" offset="50.4386882%"></stop>
            <stop stop-color="#FFFFFF" offset="100%"></stop>
        </linearGradient>
    </defs>
    <g id="UI界面" stroke="none" stroke-width="1" fill="none" fill-rule="evenodd">
        <g id="VG一级图标库icon" transform="translate(-112, -513)">
            <g id="椭圆形-+-椭圆形-+-Fill-3备份蒙版" transform="translate(112, 513)">
                <mask id="mask-2" fill="white">
                    <use xlink:href="#path-1"></use>
                </mask>
                <g id="蒙版"></g>
                <path d="M9.76812228,5.14502178 C16.1193969,5.14502178 21.2681223,7.38359803 21.2681223,10.1450218 C21.2681223,12.9064455 16.1193969,15.1450218 9.76812228,15.1450218 C3.41684766,15.1450218 -1.73187772,12.9064455 -1.73187772,10.1450218 C-1.73187772,7.38359803 3.41684766,5.14502178 9.76812228,5.14502178 Z M9.76812228,6.64502178 C4.15782214,6.64502178 -0.23187772,8.55358694 -0.23187772,10.1450218 C-0.23187772,11.7364566 4.15782214,13.6450218 9.76812228,13.6450218 C15.3784224,13.6450218 19.7681223,11.7364566 19.7681223,10.1450218 C19.7681223,8.55358694 15.3784224,6.64502178 9.76812228,6.64502178 Z" id="椭圆形" fill="url(#linearGradient-3)" mask="url(#mask-2)" transform="translate(9.7681, 10.145) scale(-1, 1) rotate(44) translate(-9.7681, -10.145)"></path>
                <path d="M9.76812228,5.14502178 C16.1193969,5.14502178 21.2681223,7.38359803 21.2681223,10.1450218 C21.2681223,12.9064455 16.1193969,15.1450218 9.76812228,15.1450218 C3.41684766,15.1450218 -1.73187772,12.9064455 -1.73187772,10.1450218 C-1.73187772,7.38359803 3.41684766,5.14502178 9.76812228,5.14502178 Z M9.76812228,6.64502178 C4.15782214,6.64502178 -0.23187772,8.55358694 -0.23187772,10.1450218 C-0.23187772,11.7364566 4.15782214,13.6450218 9.76812228,13.6450218 C15.3784224,13.6450218 19.7681223,11.7364566 19.7681223,10.1450218 C19.7681223,8.55358694 15.3784224,6.64502178 9.76812228,6.64502178 Z" id="椭圆形" fill="url(#linearGradient-4)" mask="url(#mask-2)" transform="translate(9.7681, 10.145) rotate(44) translate(-9.7681, -10.145)"></path>
                <path d="M11.6339695,15.6554148 C11.6339695,16.7600803 10.7385074,17.6555595 9.63396945,17.6555595 C8.52943149,17.6555595 7.63396945,16.7600803 7.63396945,15.6554148 C7.63396945,14.5508558 8.52943149,13.6553766 9.63396945,13.6553766 C10.7385074,13.6553766 11.6339695,14.5508558 11.6339695,15.6554148 Z M11.6339695,4.65541485 C11.6339695,5.76008031 10.7385074,6.65555946 9.63396945,6.65555946 C8.52943149,6.65555946 7.63396945,5.76008031 7.63396945,4.65541485 C7.63396945,3.55085579 8.52943149,2.65537664 9.63396945,2.65537664 C10.7385074,2.65537664 11.6339695,3.55085579 11.6339695,4.65541485 Z" id="Fill-3备份" fill="#10E5FF" mask="url(#mask-2)"></path>
            </g>
        </g>
    </g>
</svg>