<?xml version="1.0" encoding="UTF-8"?>
<svg width="20px" height="20px" viewBox="0 0 20 20" version="1.1" xmlns="http://www.w3.org/2000/svg" xmlns:xlink="http://www.w3.org/1999/xlink">
    <title>编组 30备份 6</title>
    <defs>
        <linearGradient x1="93.0982458%" y1="6.93221478%" x2="-4.99947306e-13%" y2="100%" id="linearGradient-1">
            <stop stop-color="#FFFFFF" offset="0%"></stop>
            <stop stop-color="#FFFFFF" offset="40.8052885%"></stop>
            <stop stop-color="#5B5B5B" offset="100%"></stop>
        </linearGradient>
    </defs>
    <g id="UI界面" stroke="none" stroke-width="1" fill="none" fill-rule="evenodd">
        <g id="VG一级图标库icon" transform="translate(-112, -937)">
            <g id="编组-30备份-3" transform="translate(112, 937)">
                <rect id="矩形备份-3077" x="0" y="0" width="20" height="20"></rect>
                <path d="M7.18984601,9.58214433 C8.29441551,9.58214433 9.18984601,8.68671383 9.18984601,7.58214433 C9.18984601,6.47757483 8.29441551,5.58214433 7.18984601,5.58214433 C6.08527651,5.58214433 5.18984601,6.47757483 5.18984601,7.58214433 C5.18984601,8.68671383 6.08527651,9.58214433 7.18984601,9.58214433 Z" id="椭圆形" fill="#10E5FF"></path>
                <path d="M15.1439115,1.25 C17.1413196,1.25 18.75,2.93618711 18.75,4.99336 L18.75,15.00664 C18.75,17.0638129 17.1413196,18.75 15.1439115,18.75 L4.85608846,18.75 C2.85868041,18.75 1.25,17.0638129 1.25,15.00664 L1.25,4.99336 C1.25,2.93618711 2.85868041,1.25 4.85608846,1.25 L15.1439115,1.25 Z M15.1439115,2.75 L4.85608846,2.75 C3.70330665,2.75 2.75,3.74923725 2.75,4.99336 L2.75,15.00664 C2.75,16.2507628 3.70330665,17.25 4.85608846,17.25 L15.1439115,17.25 C16.2966934,17.25 17.25,16.2507628 17.25,15.00664 L17.25,4.99336 C17.25,3.74923725 16.2966934,2.75 15.1439115,2.75 Z" id="Fill-1" fill="url(#linearGradient-1)"></path>
                <path d="M14.538753,8.49761694 C14.8162115,8.24287727 15.2476434,8.26129452 15.5023831,8.53875303 C15.7571227,8.81621153 15.7387055,9.24764339 15.461247,9.50238306 L10.3701297,14.1766298 C9.90860399,14.600365 9.19955078,14.600365 8.73802505,14.1766298 L7.117,12.688 L5.46124697,14.2084676 C5.21153432,14.4377333 4.83710324,14.4457419 4.57900894,14.2427837 L4.49761694,14.1673315 C4.24287727,13.889873 4.26129452,13.4584412 4.53875303,13.2037015 L6.30092228,11.585822 C6.76244801,11.1620869 7.47150122,11.1620869 7.93302695,11.585822 L9.554,13.073 L14.538753,8.49761694 Z" id="路径-16" fill="#10E5FF"></path>
            </g>
        </g>
    </g>
</svg>