<?xml version="1.0" encoding="UTF-8"?>
<svg width="20px" height="20px" viewBox="0 0 20 20" version="1.1" xmlns="http://www.w3.org/2000/svg" xmlns:xlink="http://www.w3.org/1999/xlink">
    <title>测量备份 2</title>
    <defs>
        <linearGradient x1="97.1603947%" y1="2.88040507%" x2="8.15608886%" y2="94.0247815%" id="linearGradient-1">
            <stop stop-color="#FFFFFF" offset="0%"></stop>
            <stop stop-color="#FFFFFF" offset="55.5623401%"></stop>
            <stop stop-color="#7B7B7B" offset="89.0980114%"></stop>
            <stop stop-color="#444444" offset="100%"></stop>
        </linearGradient>
    </defs>
    <g id="UI界面" stroke="none" stroke-width="1" fill="none" fill-rule="evenodd">
        <g id="VG一级图标库icon" transform="translate(-108, -1859)">
            <g id="测量备份-2" transform="translate(108, 1859)">
                <rect id="矩形备份-3080" x="0" y="0" width="20" height="20"></rect>
                <path d="M9.72520247,13.2254162 L9.72520247,9.27588726 C9.72520247,8.91690218 9.43418756,8.62588726 9.07520247,8.62588726 C8.71621738,8.62588726 8.42520247,8.91690218 8.42520247,9.27588726 L8.42520247,13.2254162 L8.42520247,13.2254162 L9.72520247,13.2254162 Z" id="路径" fill="#10E5FF" transform="translate(9.0752, 10.9257) rotate(45) translate(-9.0752, -10.9257)"></path>
                <path d="M5.15011155,8.65032532 L5.15011155,4.70079634 C5.15011155,4.34181125 4.85909663,4.05079634 4.50011155,4.05079634 C4.14112646,4.05079634 3.85011155,4.34181125 3.85011155,4.70079634 L3.85011155,8.65032532 L3.85011155,8.65032532 L5.15011155,8.65032532 Z" id="路径备份-8" fill="#10E5FF" transform="translate(4.5001, 6.3506) rotate(45) translate(-4.5001, -6.3506)"></path>
                <path d="M6.9413512,10.729396 L6.9413512,8.16963807 C6.9413512,7.81065298 6.65033629,7.51963807 6.2913512,7.51963807 C5.93236611,7.51963807 5.6413512,7.81065298 5.6413512,8.16963807 L5.6413512,10.729396 L5.6413512,10.729396 L6.9413512,10.729396 Z" id="路径" fill="#10E5FF" transform="translate(6.2914, 9.1245) rotate(45) translate(-6.2914, -9.1245)"></path>
                <path d="M11.5217807,15.3078748 L11.5217807,12.7386983 C11.5217807,12.3797132 11.2307657,12.0886983 10.8717807,12.0886983 C10.5127956,12.0886983 10.2217807,12.3797132 10.2217807,12.7386983 L10.2217807,15.3078748 L10.2217807,15.3078748 L11.5217807,15.3078748 Z" id="路径-16备份" fill="#10E5FF" transform="translate(10.8718, 13.6983) rotate(45) translate(-10.8718, -13.6983)"></path>
                <path d="M14.3051996,17.8054134 L14.3051996,13.8558844 C14.3051996,13.4968993 14.0141847,13.2058844 13.6551996,13.2058844 C13.2962145,13.2058844 13.0051996,13.4968993 13.0051996,13.8558844 L13.0051996,17.8054134 L13.0051996,17.8054134 L14.3051996,17.8054134 Z" id="路径" fill="#10E5FF" transform="translate(13.6552, 15.5056) rotate(45) translate(-13.6552, -15.5056)"></path>
                <path d="M11.5631338,5.69031623 L13.931082,3.32159868 C14.1839027,3.06886554 14.5937773,3.06886554 14.8466951,3.32159868 L16.6785041,5.15347685 C16.9312277,5.40640425 16.9312277,5.81629428 16.6785041,6.06912455 L14.3105559,8.43716219 L11.5631338,5.68963632 L11.5631338,5.69031623 Z M5.68959273,11.5634964 L8.43691769,14.3109251 L5.87928111,16.8687555 L4.09477281,16.8687555 L5.70377322,15.2589172 C5.95222324,15.0017161 5.94513299,14.5917289 5.68784445,14.3433667 C5.43696626,14.1009293 5.03913542,14.1009293 4.78825723,14.3433667 L3.1325389,15.9984676 L3.1325389,14.1212296 L5.68959273,11.5634964 Z M4.69559839,1.56878459 L1.56879952,4.69570157 C0.81043449,5.45428951 0.81043449,6.68395959 1.56879952,7.44254753 L4.7746595,10.6478487 L2.21692579,13.2055819 C1.97410912,13.4484077 1.83754902,13.7777767 1.83754902,14.1212296 L1.83754902,17.5162263 C1.83754902,17.8738602 2.127375,18.1637943 2.4849954,18.1637943 L5.879961,18.1637943 C6.2234009,18.1636971 6.55266031,18.027229 6.79547698,17.784306 L9.35253081,15.2258929 L12.5577109,18.4311941 C13.3162702,19.1895878 14.5458938,19.1895878 15.3044531,18.4311941 L18.431252,15.3042771 C19.189617,14.5456892 19.189617,13.3160191 18.431252,12.5574311 L15.2254891,9.35280989 L17.5934373,6.98477225 C18.3517052,6.22618431 18.3517052,4.99651423 17.5934373,4.23792629 L15.762891,2.40604811 C15.0043317,1.64736304 13.7744167,1.64716878 13.0157603,2.40575672 L10.6475207,4.77466853 L7.4423406,1.56936738 C6.68378131,0.810390915 5.45415768,0.810390915 4.69559839,1.56878459 Z M17.515736,13.4736616 C17.7684596,13.726589 17.7684596,14.136479 17.515736,14.3893093 L14.38884,17.5162263 C14.1360193,17.7690566 13.7261447,17.7690566 13.473324,17.5162263 L13.0154689,17.058451 L12.0999529,16.1422205 L10.7259019,14.7687975 L9.8102888,13.8531498 L8.43691769,12.479047 L7.52140171,11.5634964 L6.14735072,10.1900734 L5.23173761,9.27442571 L3.8583665,7.90032282 L2.94343328,6.98477225 L2.4849954,6.52689983 C2.2322718,6.27406956 2.2322718,5.86417954 2.4849954,5.61134927 L5.61189139,2.48433516 C5.86471211,2.23160202 6.27458665,2.23160202 6.52740738,2.48433516 L17.515736,13.4736616 Z" id="Fill-3" fill="url(#linearGradient-1)"></path>
            </g>
        </g>
    </g>
</svg>