<?xml version="1.0" encoding="UTF-8"?>
<svg width="20px" height="20px" viewBox="0 0 20 20" version="1.1" xmlns="http://www.w3.org/2000/svg" xmlns:xlink="http://www.w3.org/1999/xlink">
    <title>储存备份 2</title>
    <defs>
        <linearGradient x1="87.898322%" y1="2.88040507%" x2="16.3740301%" y2="94.0247815%" id="linearGradient-1">
            <stop stop-color="#FFFFFF" offset="0%"></stop>
            <stop stop-color="#FFFFFF" offset="43.5821554%"></stop>
            <stop stop-color="#4A4A4A" offset="100%"></stop>
        </linearGradient>
    </defs>
    <g id="UI界面" stroke="none" stroke-width="1" fill="none" fill-rule="evenodd">
        <g id="VG一级图标库icon" transform="translate(-108, -2344)">
            <g id="储存备份-2" transform="translate(108, 2344)">
                <rect id="矩形备份-3085" x="0" y="0" width="20" height="20"></rect>
                <path d="M13.6555028,1 C14.5452089,1 15.3890186,1.39490889 15.959007,2.07805612 L17.2072607,3.57412361 C17.807276,4.29325887 18.1359218,5.20013987 18.1359218,6.13671545 L18.1359218,16 C18.1359218,17.6568542 16.792776,19 15.1359218,19 L5,19 C3.34314575,19 2,17.6568542 2,16 L2,4 C2,2.34314575 3.34314575,1 5,1 L13.6555028,1 Z M5.021,2.5 L5,2.5 C4.17157288,2.5 3.5,3.17157288 3.5,4 L3.5,16 C3.5,16.8284271 4.17157288,17.5 5,17.5 L5.021,17.5 L5.02117793,11.7788004 C5.02117793,10.812302 5.80467962,10.0288004 6.77117793,10.0288004 L13.1782215,10.0288004 C14.1447199,10.0288004 14.9282215,10.812302 14.9282215,11.7788004 L14.928,17.5 L15.1359218,17.5 C15.9643489,17.5 16.6359218,16.8284271 16.6359218,16 L16.6359218,6.13671545 C16.6359218,5.55135571 16.4305182,4.98455509 16.0555086,4.53509555 L14.8072549,3.03902806 C14.7546719,2.97600581 14.6974281,2.91788972 14.6362393,2.86501477 L14.6359436,4.86039534 C14.6359436,5.82689365 13.8524419,6.61039534 12.8859436,6.61039534 L6.77117793,6.61039534 C5.80467962,6.61039534 5.02117793,5.82689365 5.02117793,4.86039534 L5.021,2.5 Z M13.1782215,11.5288004 L6.77117793,11.5288004 C6.63310675,11.5288004 6.52117793,11.6407292 6.52117793,11.7788004 L6.521,17.5 L13.428,17.5 L13.4282215,11.7788004 C13.4282215,11.6407292 13.3162927,11.5288004 13.1782215,11.5288004 Z M13.135,2.5 L6.521,2.5 L6.52117793,4.86039534 C6.52117793,4.99846653 6.63310675,5.11039534 6.77117793,5.11039534 L12.8859436,5.11039534 C13.0240148,5.11039534 13.1359436,4.99846653 13.1359436,4.86039534 L13.135,2.5 Z" id="形状结合" fill="url(#linearGradient-1)"></path>
                <path d="M11.5905016,12.7333036 C11.9494867,12.7333036 12.2405016,13.0243185 12.2405016,13.3833036 C12.2405016,13.7422887 11.9494867,14.0333036 11.5905016,14.0333036 L8.262634,14.0333036 C7.90364891,14.0333036 7.612634,13.7422887 7.612634,13.3833036 C7.612634,13.0243185 7.90364891,12.7333036 8.262634,12.7333036 L11.5905016,12.7333036 Z" id="路径-6" fill="#10E5FF"></path>
                <path d="M11.5905016,15.184126 C11.9494867,15.184126 12.2405016,15.4751409 12.2405016,15.834126 C12.2405016,16.1931111 11.9494867,16.484126 11.5905016,16.484126 L8.262634,16.484126 C7.90364891,16.484126 7.612634,16.1931111 7.612634,15.834126 C7.612634,15.4751409 7.90364891,15.184126 8.262634,15.184126 L11.5905016,15.184126 Z" id="路径-6备份-2" fill="#10E5FF"></path>
            </g>
        </g>
    </g>
</svg>