<?xml version="1.0" encoding="UTF-8"?>
<svg width="22px" height="22px" viewBox="0 0 22 22" version="1.1" xmlns="http://www.w3.org/2000/svg" xmlns:xlink="http://www.w3.org/1999/xlink">
    <title>工具箱</title>
    <defs>
        <linearGradient x1="121.29049%" y1="18.3748113%" x2="-3.30475478e-14%" y2="100%" id="linearGradient-1">
            <stop stop-color="#FFFFFF" offset="0%"></stop>
            <stop stop-color="#FFFFFF" offset="29.2514788%"></stop>
            <stop stop-color="#4A4A4A" offset="100%"></stop>
        </linearGradient>
    </defs>
    <g id="UI界面" stroke="none" stroke-width="1" fill="none" fill-rule="evenodd">
        <g id="VG一级图标库icon" transform="translate(-111, -378)">
            <g id="工具箱" transform="translate(111, 378)">
                <polygon id="路径" fill="#202425" fill-rule="nonzero" opacity="0.01" points="0 0 22 0 22 22 0 22"></polygon>
                <path d="M13.1954262,1.48648649 C14.8120934,1.48648649 16.1226611,2.7970542 16.1226611,4.41372141 L16.1226611,5.14553013 L16.8544699,5.14553013 C18.8753039,5.14553015 20.5135135,6.78373979 20.5135135,8.8045738 L20.5135135,16.8544699 C20.5135135,18.8753039 18.8753039,20.5135135 16.8544699,20.5135135 L5.14553013,20.5135135 C3.12469613,20.5135135 1.48648649,18.8753039 1.48648649,16.8544699 L1.48648649,8.8045738 C1.48648649,6.78373979 3.12469613,5.14553015 5.14553013,5.14553013 L5.87733888,5.14553013 L5.87733888,4.41372141 C5.87733888,2.7970542 7.1879066,1.48648649 8.8045738,1.48648649 Z M7.34095633,13.1954262 L2.95010394,13.1954262 L2.95010394,16.8544699 C2.95010394,18.0669703 3.93302973,19.0498961 5.14553013,19.0498961 L16.8544699,19.0498961 C18.0669703,19.0498961 19.0498961,18.0669703 19.0498961,16.8544699 L19.0498961,13.1954262 L14.6590437,13.1954262 C14.6590437,14.4079266 13.6761179,15.3908524 12.4636175,15.3908524 L9.53638253,15.3908524 C8.32388212,15.3908524 7.34095633,14.4079266 7.34095633,13.1954262 Z M16.8544699,6.60914761 L5.14553013,6.60914761 C3.93302973,6.60914761 2.95010394,7.59207339 2.95010394,8.8045738 L2.95010394,11.7318087 L7.34095633,11.7318087 C7.34095633,10.5193083 8.32388212,9.53638253 9.53638253,9.53638253 L12.4636175,9.53638253 C13.6761179,9.53638253 14.6590437,10.5193083 14.6590437,11.7318087 L19.0498961,11.7318087 L19.0498961,8.8045738 C19.0498961,7.59207339 18.0669703,6.60914761 16.8544699,6.60914761 Z M13.1954262,2.95010394 L8.8045738,2.95010394 C7.99624019,2.95010394 7.34095633,3.6053878 7.34095633,4.41372141 L7.34095633,5.14553013 L14.6590437,5.14553013 L14.6590437,4.41372141 C14.6590437,3.6053878 14.0037598,2.95010394 13.1954262,2.95010394 Z" id="形状结合" fill="url(#linearGradient-1)"></path>
                <path d="M13.1954262,13.1954262 C13.1954262,13.599593 12.8677843,13.9272349 12.4636175,13.9272349 L9.53638253,13.9272349 C9.13221573,13.9272349 8.8045738,13.599593 8.8045738,13.1954262 L8.8045738,11.7318087 C8.8045738,11.3276419 9.13221573,11 9.53638253,11 L12.4636175,11 C12.8677843,11 13.1954262,11.3276419 13.1954262,11.7318087 L13.1954262,12.4636175 L13.1954262,13.1954262 Z" id="路径" fill="#10E5FF"></path>
            </g>
        </g>
    </g>
</svg>